<svg
    style="font:bold  12pt Helvetica, Helvetica, sans-serif;;stroke-linejoin:round;stroke-linecap:round"
    baseProfile="full" height="387" version="1.1" viewbox="0 0 719.5 387" width="719.5"
    xmlns="http://www.w3.org/2000/svg">
    <desc>#.i: dashed title=bold
        #.g: stroke=#00F title=bold
        #.ig: dashed stroke=#00F title=bold
        [Input/Output|
        [TextInputLayout]-:&gt;[&lt;i&gt;Field]
        [Field]-:&gt;[TextInput]
        [Field]-:&gt;[&lt;g&gt;GenericAutoComplete]
        [TextInput]-:&gt;[Date]
        [TextInput]-:&gt;[Time]
        [GenericAutoComplete]-:&gt;[AutoComplete]
        [ChipGroup]-:&gt;[&lt;g&gt;GenericChips]
        [GenericChips]-:&gt;[Chips]

        [&lt;i&gt;TextInputEditText]-o)[TextInput]
        [&lt;i&gt;TextInputEditText]-[&lt;ig&gt;AutoCompleteTextView]
        [AutoCompleteTextView]-o)[GenericAutoComplete]
        ]
    </desc>
    <rect style="stroke:none; fill:transparent;" height="387" width="719.5" x="0" y="0"></rect>
    <rect style="stroke:#33322E;fill:#eee8d5;stroke-dasharray:none;stroke-width:3;"
        data-name="Input/Output" height="331" width="663.5" x="28.5" y="28.5"></rect>
    <path style="stroke:#33322E;fill:none;stroke-dasharray:none;stroke-width:3;"
        d="M28.5 59.5 L692 59.5" data-name="Input/Output"></path>
    <text
        style="fill: #33322E;font:bold  12pt Helvetica, Helvetica, sans-serif;text-anchor: middle;"
        data-name="Input/Output" x="360.3" y="50">Input/Output
    </text>
    <path style="stroke:#33322E;fill:none;stroke-dasharray:none;stroke-width:3;"
        d="M126 118.5 L126 138.5 L126 145.2 L126 145.2 " data-name="Input/Output"></path>
    <path style="stroke:#33322E;fill:#eee8d5;stroke-dasharray:none;stroke-width:3;"
        d="M120.7 145.2 L126 145.2 L131.3 145.2 L126 158.5 Z" data-name="Input/Output"></path>
    <path style="stroke:#33322E;fill:none;stroke-dasharray:none;stroke-width:3;"
        d="M126 189.5 L126 209.5 L135.6 219.8 L135.6 219.8 " data-name="Input/Output"></path>
    <path style="stroke:#33322E;fill:#eee8d5;stroke-dasharray:none;stroke-width:3;"
        d="M131.7 223.4 L135.6 219.8 L139.5 216.1 L144.7 229.5 Z" data-name="Input/Output"></path>
    <path style="stroke:#33322E;fill:none;stroke-dasharray:none;stroke-width:3;"
        d="M152.5 178.9 L319.5 209.5 L346 223.3 L346 223.3 " data-name="Input/Output"></path>
    <path style="stroke:#33322E;fill:#eee8d5;stroke-dasharray:none;stroke-width:3;"
        d="M343.5 228.1 L346 223.3 L348.5 218.6 L357.8 229.5 Z" data-name="Input/Output"></path>
    <path style="stroke:#33322E;fill:none;stroke-dasharray:none;stroke-width:3;"
        d="M139.2 260.5 L113.3 280.5 L113.3 287.2 L113.3 287.2 " data-name="Input/Output"></path>
    <path style="stroke:#33322E;fill:#eee8d5;stroke-dasharray:none;stroke-width:3;"
        d="M107.9 287.2 L113.3 287.2 L118.6 287.2 L113.3 300.5 Z" data-name="Input/Output"></path>
    <path style="stroke:#33322E;fill:none;stroke-dasharray:none;stroke-width:3;"
        d="M192.3 260.5 L235 280.5 L235 287.2 L235 287.2 " data-name="Input/Output"></path>
    <path style="stroke:#33322E;fill:#eee8d5;stroke-dasharray:none;stroke-width:3;"
        d="M229.7 287.2 L235 287.2 L240.3 287.2 L235 300.5 Z" data-name="Input/Output"></path>
    <path style="stroke:#33322E;fill:none;stroke-dasharray:none;stroke-width:3;"
        d="M387.5 260.5 L387.5 280.5 L387.5 287.2 L387.5 287.2 " data-name="Input/Output"></path>
    <path style="stroke:#33322E;fill:#eee8d5;stroke-dasharray:none;stroke-width:3;"
        d="M382.2 287.2 L387.5 287.2 L392.8 287.2 L387.5 300.5 Z" data-name="Input/Output"></path>
    <path style="stroke:#33322E;fill:none;stroke-dasharray:none;stroke-width:3;"
        d="M604 118.5 L604 138.5 L604 145.2 L604 145.2 " data-name="Input/Output"></path>
    <path style="stroke:#33322E;fill:#eee8d5;stroke-dasharray:none;stroke-width:3;"
        d="M598.7 145.2 L604 145.2 L609.3 145.2 L604 158.5 Z" data-name="Input/Output"></path>
    <path style="stroke:#33322E;fill:none;stroke-dasharray:none;stroke-width:3;"
        d="M604 189.5 L604 209.5 L604 216.2 L604 216.2 " data-name="Input/Output"></path>
    <path style="stroke:#33322E;fill:#eee8d5;stroke-dasharray:none;stroke-width:3;"
        d="M598.7 216.2 L604 216.2 L609.3 216.2 L604 229.5 Z" data-name="Input/Output"></path>
    <path style="stroke:#33322E;fill:none;stroke-dasharray:none;stroke-width:3;"
        d="M300.8 118.5 L251.3 138.5 L251.3 174 L251.3 174 L251.3 209.5 L251.3 209.5 L213.1 224.2 L213.1 224.2 "
        data-name="Input/Output"></path>
    <path style="stroke:#33322E;fill:none;stroke-dasharray:none;stroke-width:3;"
        d="M216 231.7 L213.8 232.2 L211.5 232.1 L209.3 231.3 L207.5 229.9 L206.1 228.1 L205.3 226 L205.1 223.7 L205.6 221.5 L206.6 219.5 L208.2 217.9 L210.2 216.8"
        data-name="Input/Output"></path>
    <path style="stroke:#33322E;fill:none;stroke-dasharray:none;stroke-width:3;"
        d="M205.6 227.1 L199.4 229.5" data-name="Input/Output"></path>
    <ellipse style="stroke:#33322E;fill:#eee8d5;stroke-dasharray:none;stroke-width:3;" cx="213.1"
        cy="224.2" data-name="Input/Output" rx="4" ry="4"></ellipse>
    <path style="stroke:#33322E;fill:none;stroke-dasharray:none;stroke-width:3;"
        d="M369 118.5 L407.5 138.5 L407.5 158.5 L407.5 158.5 " data-name="Input/Output"></path>
    <path style="stroke:#33322E;fill:none;stroke-dasharray:none;stroke-width:3;"
        d="M407.5 189.5 L407.5 209.5 L403.4 216.7 L403.4 216.7 " data-name="Input/Output"></path>
    <path style="stroke:#33322E;fill:none;stroke-dasharray:none;stroke-width:3;"
        d="M410.4 220.6 L409 222.5 L407.2 223.8 L405 224.6 L402.8 224.7 L400.5 224.2 L398.6 223.1 L397 221.4 L395.9 219.4 L395.4 217.2 L395.6 214.9 L396.5 212.8"
        data-name="Input/Output"></path>
    <path style="stroke:#33322E;fill:none;stroke-dasharray:none;stroke-width:3;"
        d="M399.5 223.7 L396.2 229.5" data-name="Input/Output"></path>
    <ellipse style="stroke:#33322E;fill:#eee8d5;stroke-dasharray:none;stroke-width:3;" cx="403.4"
        cy="216.7" data-name="Input/Output" rx="4" ry="4"></ellipse>
    <rect style="stroke:#33322E;fill:#fdf6e3;stroke-dasharray:none;stroke-width:3;"
        data-name="TextInputLayout" height="31" width="139" x="56.5" y="87.5"></rect>
    <text
        style="fill: #33322E;font:bold  12pt Helvetica, Helvetica, sans-serif;text-anchor: middle;"
        data-name="TextInputLayout" x="126" y="109">TextInputLayout
    </text>
    <rect style="stroke:#33322E;fill:#fdf6e3;stroke-dasharray:6 6;stroke-width:3;" data-name="Field"
        height="31" width="53" x="99.5" y="158.5"></rect>
    <text
        style="fill: #33322E;font:bold  12pt Helvetica, Helvetica, sans-serif;text-anchor: middle;"
        data-name="Field" x="126" y="180">Field
    </text>
    <rect style="stroke:#33322E;fill:#fdf6e3;stroke-dasharray:none;stroke-width:3;"
        data-name="TextInput" height="31" width="87" x="115.5" y="229.5"></rect>
    <text
        style="fill: #33322E;font:bold  12pt Helvetica, Helvetica, sans-serif;text-anchor: middle;"
        data-name="TextInput" x="159" y="251">TextInput
    </text>
    <rect style="stroke:#00F;fill:#fdf6e3;stroke-dasharray:none;stroke-width:3;"
        data-name="GenericAutoComplete" height="31" width="185" x="295.5" y="229.5"></rect>
    <text style="fill: #00F;font:bold  12pt Helvetica, Helvetica, sans-serif;text-anchor: middle;"
        data-name="GenericAutoComplete" x="388" y="251">GenericAutoComplete
    </text>
    <rect style="stroke:#33322E;fill:#fdf6e3;stroke-dasharray:none;stroke-width:3;" data-name="Date"
        height="31" width="51" x="87.5" y="300.5"></rect>
    <text
        style="fill: #33322E;font:bold  12pt Helvetica, Helvetica, sans-serif;text-anchor: middle;"
        data-name="Date" x="113" y="322">Date
    </text>
    <rect style="stroke:#33322E;fill:#fdf6e3;stroke-dasharray:none;stroke-width:3;" data-name="Time"
        height="31" width="53" x="208.5" y="300.5"></rect>
    <text
        style="fill: #33322E;font:bold  12pt Helvetica, Helvetica, sans-serif;text-anchor: middle;"
        data-name="Time" x="235" y="322">Time
    </text>
    <rect style="stroke:#33322E;fill:#fdf6e3;stroke-dasharray:none;stroke-width:3;"
        data-name="AutoComplete" height="31" width="125" x="325.5" y="300.5"></rect>
    <text
        style="fill: #33322E;font:bold  12pt Helvetica, Helvetica, sans-serif;text-anchor: middle;"
        data-name="AutoComplete" x="388" y="322">AutoComplete
    </text>
    <rect style="stroke:#33322E;fill:#fdf6e3;stroke-dasharray:none;stroke-width:3;"
        data-name="ChipGroup" height="31" width="100" x="554.5" y="87.5"></rect>
    <text
        style="fill: #33322E;font:bold  12pt Helvetica, Helvetica, sans-serif;text-anchor: middle;"
        data-name="ChipGroup" x="604.5" y="109">ChipGroup
    </text>
    <rect style="stroke:#00F;fill:#fdf6e3;stroke-dasharray:none;stroke-width:3;"
        data-name="GenericChips" height="31" width="120" x="544.5" y="158.5"></rect>
    <text style="fill: #00F;font:bold  12pt Helvetica, Helvetica, sans-serif;text-anchor: middle;"
        data-name="GenericChips" x="604.5" y="180">GenericChips
    </text>
    <rect style="stroke:#33322E;fill:#fdf6e3;stroke-dasharray:none;stroke-width:3;"
        data-name="Chips" height="31" width="60" x="574.5" y="229.5"></rect>
    <text
        style="fill: #33322E;font:bold  12pt Helvetica, Helvetica, sans-serif;text-anchor: middle;"
        data-name="Chips" x="604.5" y="251">Chips
    </text>
    <rect style="stroke:#33322E;fill:#fdf6e3;stroke-dasharray:6 6;stroke-width:3;"
        data-name="TextInputEditText" height="31" width="149" x="264.5" y="87.5"></rect>
    <text
        style="fill: #33322E;font:bold  12pt Helvetica, Helvetica, sans-serif;text-anchor: middle;"
        data-name="TextInputEditText" x="339" y="109">TextInputEditText
    </text>
    <rect style="stroke:#00F;fill:#fdf6e3;stroke-dasharray:6 6;stroke-width:3;"
        data-name="AutoCompleteTextView" height="31" width="193" x="311.5" y="158.5"></rect>
    <text style="fill: #00F;font:bold  12pt Helvetica, Helvetica, sans-serif;text-anchor: middle;"
        data-name="AutoCompleteTextView" x="408" y="180">AutoCompleteTextView
    </text>
</svg>